<svg version="1" xmlns="http://www.w3.org/2000/svg" width="917.333" height="917.333" viewBox="0 0 688.000000 688.000000"><path d="M326.6 1.7c-.4.4-5.6 1.1-11.4 1.4-9.6.6-15.5 1.4-36.7 4.8-3.3.5-8 1.7-10.4 2.5-2.4.9-5.6 1.6-7 1.6-1.5 0-7.4 1.5-13.2 3.4-5.7 1.9-12 3.7-13.9 4.1-3.8.8-4.5 1.1-10.7 4.3-2.3 1.2-4.8 2.2-5.5 2.2-.7 0-3.8 1.2-6.8 2.6-3 1.5-6.6 3.1-8 3.7-1.4.5-3.7 1.6-5.2 2.3-1.4.8-3.1 1.4-3.8 1.4-.6 0-2.6 1.1-4.4 2.5-1.8 1.4-3.9 2.5-4.7 2.5-.8 0-2.5.9-3.9 2s-3.1 2-3.8 2c-.7 0-3.4 1.6-5.9 3.5-2.5 1.9-5.2 3.5-5.9 3.5-.7 0-3.5 1.8-6.3 4s-5.6 4-6.4 4c-3.6 0-47.5 37.8-60.1 51.8-13.9 15.3-24.4 28-25.9 31.2-.4.8-2.1 3.3-3.7 5.5-1.7 2.2-3.8 5.1-4.7 6.5-4.4 6.7-8.3 12.9-10.2 16.2-1.1 2.1-3.1 5.5-4.2 7.5-14.3 24.9-27.3 59-34.4 89.9-10.4 45.2-11.1 97.8-1.9 143.3C11.8 433 21 463.1 28 478.5c5.9 13.1 10.1 22.1 10.9 23.5.5.8 2.5 4.3 4.3 7.8 1.8 3.5 3.9 6.8 4.5 7.4.7.6 1.3 1.5 1.3 2.1 0 .5 1.9 4 4.3 7.6 2.4 3.6 4.7 7.3 5 8.1.4.8 2.1 3.3 3.8 5.5 1.6 2.2 4.3 5.9 5.8 8.2 5 7.5 23.7 28.9 35.6 40.8 9.7 9.6 39.4 34.4 44 36.6 1.8.9 6 3.7 9.3 6.3 3.3 2.5 6.6 4.6 7.2 4.6.7 0 2.9 1.3 4.9 2.9 2 1.6 5.2 3.6 7.1 4.4 1.9.9 4.9 2.4 6.5 3.3 1.7.9 3.7 2.1 4.5 2.6.8.4 2.2 1.1 3 1.4.8.3 4.9 2.2 9 4.1 4.1 1.9 8.6 4 10 4.5 1.4.5 4.1 1.8 6 2.8 1.9.9 5.1 2.1 7 2.5 1.9.4 4 1 4.5 1.4.9.7 17.7 6.1 29.4 9.5 2.9.9 6.6 1.6 8.2 1.6 1.5 0 3.1.4 3.4 1 .3.5 1.8 1 3.2 1 1.5 0 4 .4 5.7.9 8.5 2.6 12 3.3 22.6 4.3 15.5 1.4 76.6 1.4 91 0 6.3-.7 14.2-2.1 17.4-3.2 3.3-1.1 7.4-2 9.2-2 1.7 0 5.1-.7 7.4-1.5 2.3-.8 5.4-1.5 6.9-1.5 2.5 0 17.6-4.6 19.6-6 .6-.3 3-1.3 5.5-2s5-1.7 5.5-2.1c.6-.4 2.6-1 4.5-1.4 1.9-.4 5.1-1.6 7-2.5 1.9-1 4.6-2.3 6-2.8 3.2-1.3 18.1-8.2 20-9.3.8-.5 2.2-1.2 3-1.5.8-.3 2.6-1.2 4-2s4.1-2.2 6-3.1c1.9-.8 5.1-2.8 7.1-4.4 2-1.6 4.2-2.9 4.9-2.9.6 0 3.9-2.1 7.2-4.6 3.3-2.6 7.5-5.4 9.3-6.3 4.6-2.2 34.3-27 44-36.6 11.9-11.9 30.6-33.3 35.6-40.8 1.5-2.3 4.2-6 5.8-8.2 1.7-2.2 3.4-4.7 3.8-5.5.3-.8 2.6-4.5 5-8.1 2.4-3.6 4.3-7.1 4.3-7.6 0-.6.6-1.5 1.3-2.1.6-.6 2.7-3.9 4.5-7.4 1.8-3.5 3.8-7 4.3-7.8.8-1.4 5.2-10.7 10.9-23.4 3.5-7.8 12.6-34.2 15.4-44.6 12.7-47.9 14.9-102.3 6.1-151-6.4-34.6-21.1-75.8-37.4-104.3-1.1-2-3.1-5.4-4.2-7.5-1.9-3.3-5.8-9.5-10.2-16.2-.9-1.4-3-4.3-4.7-6.5-1.6-2.2-3.3-4.7-3.7-5.5-1.5-3.2-12-15.9-25.9-31.2-12.6-14-56.5-51.8-60.1-51.8-.8 0-3.6-1.8-6.4-4-2.8-2.2-5.6-4-6.3-4-.7 0-3.4-1.6-5.9-3.5-2.5-1.9-5.2-3.5-5.9-3.5-.7 0-2.4-.9-3.8-2s-3.1-2-3.9-2c-.8 0-2.9-1.1-4.7-2.5-1.8-1.4-3.8-2.5-4.4-2.5-.7 0-2.4-.6-3.8-1.4-1.5-.7-3.8-1.8-5.2-2.3-1.4-.6-5-2.2-8-3.7-3-1.4-6.1-2.6-6.8-2.6-.7 0-3-.9-5-1.9-5.3-2.7-7.9-3.7-14.7-5.6-3.3-.9-8.8-2.5-12.2-3.6-6.8-2.1-13.8-3.8-19.6-4.6-2-.3-4-.9-4.3-1.4-.3-.5-1.8-.9-3.4-.9-1.6 0-3.9-.4-5.2-1-2.2-.9-12.1-2.1-34.3-4.1-15.3-1.4-43.9-2.1-44.9-1.2zm46.9 9c7.2.5 13.6 1.2 14.2 1.6.6.4 4.7 1.2 9 1.7 10.2 1.2 14.4 1.9 16.8 3 1.1.5 3.4 1.1 5 1.4 7.9 1.3 14.1 2.8 15 3.7.5.5 2.2.9 3.7.9 1.6 0 3.6.4 4.6.9.9.5 4.2 1.7 7.2 2.6 5.2 1.5 8.4 2.7 12 4.5.9.4 3.1 1.1 5 1.5 1.9.4 4.7 1.6 6.2 2.6 1.4 1.1 3.1 1.9 3.8 1.9 1.1 0 11.2 4.4 14 6 2.8 1.8 11.7 6 12.5 6 .4 0 2.3 1.1 4.1 2.5 1.8 1.4 3.8 2.5 4.4 2.5.6 0 3.2 1.6 5.7 3.5s5.1 3.5 5.6 3.5c.6 0 3.7 2 6.8 4.5 3.2 2.5 6.3 4.5 6.9 4.5 2.8 0 54.7 45.7 57.1 50.3.6 1.2 3.7 5 6.8 8.4 5.5 6 8.6 9.7 12.6 15.2 3.7 5.1 10 14.3 12 17.6 1.1 1.7 2.7 4 3.5 5 4.2 5 23.5 43 28.1 55.5 16.8 45.7 22.9 78.8 22.9 122.9-.1 53.5-10.8 99.7-34.3 148.1-8.1 16.6-21.6 38.9-30.9 51-12.2 16-20 24.9-32.8 37.7-11.1 11.1-38 34.2-42.9 36.8-2 1.1-5.6 3.5-7.8 5.2-2.3 1.8-4.7 3.3-5.3 3.3-.7 0-3.2 1.6-5.6 3.5-2.3 1.9-4.8 3.5-5.5 3.5-.7 0-2.7 1.1-4.5 2.5-1.8 1.4-3.9 2.5-4.6 2.5-.7 0-2.4.9-3.8 2s-3.2 2-4.1 2c-.9 0-2.2.7-2.9 1.5-.7.8-2 1.5-2.9 1.5-.9 0-2.7.9-4.1 2-1.4 1.1-3.3 2-4.2 2-.9 0-1.9.4-2.2.9-.3.4-2.7 1.6-5.3 2.5-2.6 1-5.9 2.2-7.3 2.8-3.7 1.5-8.2 3.4-11 4.6-1.4.6-4.1 1.5-6 2.1-1.9.5-6.9 2.1-11.2 3.5-4.2 1.5-9 2.6-10.7 2.6-1.7 0-5.4.9-8.3 2.1-2.9 1.2-8 2.5-11.3 3-3.3.5-8.5 1.4-11.5 1.9-12 2.2-23.8 2.9-53.5 2.8-35.7 0-48.1-.9-63.5-4.8-2.5-.6-7.4-1.5-10.9-2-3.6-.6-6.9-1.4-7.5-2-.5-.5-2.1-1-3.6-1-2.6 0-9.5-2.1-10.6-3.3-.4-.4-1.8-.7-3-.7-2.3 0-9.7-2.2-14.4-4.2-2.6-1.1-6.8-2.9-11-4.6-1.4-.6-4.7-1.8-7.3-2.8-2.6-.9-5-2.1-5.3-2.5-.3-.5-1.3-.9-2.2-.9-.9 0-2.8-.9-4.2-2-1.4-1.1-3.2-2-4.1-2-.9 0-2.2-.7-2.9-1.5-.7-.8-2-1.5-2.9-1.5-.9 0-2.7-.9-4.1-2-1.4-1.1-3.1-2-3.8-2-.7 0-2.8-1.1-4.6-2.5-1.8-1.4-3.8-2.5-4.5-2.5-.7 0-3.2-1.6-5.5-3.5-2.4-1.9-4.9-3.5-5.6-3.5-.6 0-3-1.5-5.3-3.3-2.2-1.7-5.8-4.1-7.8-5.2-4.9-2.6-31.9-25.8-42.9-36.8-13.8-13.9-19.9-20.9-32.8-37.7-15.1-19.6-32-50.4-42.5-77.5-8.3-21.2-11.7-33-16.6-57-4.2-20.6-6.1-40.8-6.1-64.4 0-43.6 6.6-79.2 22.9-123.1 4.7-12.6 23.9-50.6 28.1-55.5.8-1 2.4-3.3 3.5-5 2-3.3 8.3-12.5 12-17.6 4-5.5 7.1-9.2 12.6-15.2 3.1-3.4 6.2-7.2 6.8-8.4C97.3 115.7 149.2 70 152 70c.6 0 3.7-2 6.9-4.5 3.1-2.5 6.2-4.5 6.8-4.5.5 0 3.1-1.6 5.6-3.5 2.5-1.9 5.1-3.5 5.7-3.5.6 0 2.6-1.1 4.4-2.5 1.8-1.4 3.7-2.5 4.1-2.5.8 0 9.7-4.2 12.5-6 2.8-1.6 12.9-6 14-6 .7 0 2.4-.8 3.8-1.9 1.5-1 4.3-2.2 6.2-2.6 1.9-.4 4.1-1.1 5-1.5 3.1-1.5 6.6-2.9 10.5-4.1 2.2-.6 5.5-1.8 7.3-2.5 5.1-2.2 42.6-10.5 51.7-11.6 4.4-.5 13.7-1.2 20.7-1.7 7.1-.4 13.1-1.1 13.5-1.5.8-.8 22-.2 42.8 1.1z"/><path d="M335.3 17.4c1.8 1.6 2.6 3.3 2.3 4.4-.3.9-3 11.1-6.1 22.7-3.1 11.5-6.3 22-7.1 23.3-.8 1.3-2.7 2.8-4.2 3.4-2.3 1-.6 1.3 11.3 2 25.4 1.6 33.2-.1 42.1-8.8 15.6-15.1 16.5-40.9 1.7-47.1-2.3-.9-9.7-1.6-23.1-2l-19.7-.6 2.8 2.7zm30.6 6c2.4 2.5 2.6 3.3 2.6 11.4 0 13.4-5.1 26-12.7 31.6-3.5 2.5-15.4 3.7-14.6 1.5.3-.8 3.3-11.9 6.8-24.8l6.4-23.3 4.4.5c3 .3 5.3 1.3 7.1 3.1zM280.8 20.9c-22.8 9-33.4 39.3-19.2 55.1 13.8 15.3 40.9 3.4 48.6-21.3 7.3-23.6-8.6-41.9-29.4-33.8zm11.4 6.2c4.1 5.5 4.4 26.4.6 39.3-1.8 5.9-6.7 10.6-11.2 10.6-6.7 0-9.6-5.7-9.6-19 0-15.7 4.1-29.4 9.8-32.5 3.9-2.1 8.1-1.5 10.4 1.6zM426.1 29c-7.2 1.5-16.7 6.5-21.5 11.3-8.3 8.3-12.3 20-9.6 28.1 3.7 11.3 19.4 18.9 35.6 17.1l6-.6 6.2-9.5c4-6.2 7.1-9.8 8.8-10.4 1.5-.6 2.4-1.3 2.1-1.7-.9-.9-24.1-7.3-24.6-6.8-.2.3.3 1.3 1.2 2.3 2.4 2.7 2.2 3.6-3 13l-4.8 8.4-3.9-.5c-5.6-.8-9.1-4.6-9.1-10 0-10.8 15.3-31.6 25.4-34.6 5.5-1.6 11.3-.6 15.1 2.5 3.2 2.7 5.5 8.4 4.7 11.5-1.1 4.1 1.7 1.1 5.6-6.1 3.8-6.9 3.9-7.3 1.8-6.7-1.6.4-4.7-.7-10-3.4-6.2-3.2-8.9-4-14.6-4.4-3.8-.2-9 0-11.4.5zM221.3 38.3c-12.1 6.1-14.7 7.9-9.9 7 3.4-.7 5.1 2.3 7.4 13l1.9 8.8-7 3.5c-4.8 2.5-7.2 3.2-7.7 2.4-.4-.6-1.5-5.4-2.5-10.6-1.8-9-1.8-9.6-.1-12.4.9-1.7 1.5-3 1.1-3-.3 0-6 2.8-12.8 6.2-11.1 5.7-11.9 6.3-8.9 6.6 2.3.2 3.6 1 4.2 2.5 1.5 3.6 10 43.4 10 46.8 0 1.8-.7 4.1-1.7 5.1-.9 1-1.4 2-1.1 2.3.3.3 6.1-2.3 12.9-5.7 10.1-5.1 11.9-6.3 9.7-6.6-1.4-.2-3.1-.9-3.7-1.6-1-1.2-5.1-18.1-5.1-21.1 0-1.7 12.5-8.3 13.6-7.2 1.1 1.1 4.3 16 4.4 20.3 0 2.5-.6 4.7-1.5 5.4-4.3 3.5-.2 2.3 11-3.2 6.9-3.5 12.5-6.7 12.5-7.1 0-.5-.7-.7-1.5-.3-2.5.9-4.3-.4-5.4-3.7-1.5-4.5-10.1-44.4-10.1-46.6 0-1 .9-3 2.1-4.5 1.1-1.4 1.7-2.6 1.2-2.5-.4 0-6.3 2.8-13 6.2zM487.5 50c1.5 1.6 1.6 2.5.7 4.3-1.3 2.6-30 34.1-33.1 36.4-1.4 1-3.3 1.3-5.2.9-1.6-.3-2.9-.2-2.9.2 0 .8 39.5 22.2 41 22.2 1 0 13.2-11.1 12.7-11.6-.1-.2-2.5.8-5.2 2.2-3.8 1.9-5.9 2.4-8.8 1.9-3.8-.5-15.1-5.7-16.1-7.3-.3-.5 3-4.7 7.3-9.3l7.8-8.4 3.8 2c4.5 2.4 6.2 5.4 4.6 8.4-2.2 4.1.7 2 6.7-4.6 3.4-3.7 5.9-6.9 5.7-7.1-.2-.2-1.9.2-3.7.8-3 1.1-3.9 1-7.5-.9-2.3-1.1-4.4-2.4-4.7-2.9-.3-.4 2.6-4.1 6.3-8.2l6.7-7.4 6.7 3.7c7.8 4.4 9.3 6.5 7.8 10.9-.9 2.7-.8 5.1.2 3.7 4.2-5.5 7.9-11.1 7.6-11.3C524.5 67.3 488 48 487 48c-.9 0-.7.7.5 2z"/><path d="M326 78c-17.2 1.1-26 2.2-26.6 3.1-.3.5-2.2.9-4.3.9-4.2 0-34.4 8-39.2 10.4-1.8.9-3.8 1.6-4.6 1.6-.7 0-2.1.4-3.1 1-.9.5-3.5 1.6-5.7 2.6-17.2 7-33.5 15.6-44.3 23-3.5 2.4-6.6 4.4-7.1 4.4-.4 0-1.8 1.1-3.1 2.5s-2.8 2.5-3.4 2.5c-.6 0-4.6 3.1-9 6.9l-7.8 6.8-8.5-16.9-8.6-16.9 2-2.2c2.9-3.2 1.8-5.5-1.2-2.7l-2.4 2.2-2.7-5.3c-3.3-6.7-4.4-10.3-3.4-11.8.5-.8 1.2-.4 2.4 1.3 2.1 3.3 4.9 3.3 7.6-.1 2.6-3.3 2.3-5-1.2-7.6-2.3-1.7-3-1.8-5.7-.7-3.8 1.5-7.6 6.4-9 11.5-.8 3-.8 6.2.1 12.3.9 6.4.9 8.7 0 10.2-.6 1.1-.9 2.6-.6 3.5.6 1.4.8 1.4 2.4 0 1.7-1.6 2-1.3 5.3 4.7 5.7 10.5 13.7 26 13.7 26.7 0 .4-4.1 5-9.1 10.1-21.9 22.8-42.4 55.3-54 85.8-12.1 31.8-16.8 55.5-17.6 89.9l-.6 22.3-2.7-4.3c-1.4-2.3-4.5-5.9-6.7-7.9-7.6-6.7-11.7-7.4-4.7-.7 9.7 9.3 10.1 20.9.8 23.9-7.3 2.4-24.5-1.2-33.7-7-3.5-2.2-5.4-4.3-6.9-7.6-3.4-7.8-.9-12.4 8-15 2.9-.9 5.1-1.8 4.8-2.1-.8-.8-13.4-3.2-16.9-3.3-2.6 0-2.7.1-1.3 2.3 1.4 2 1.4 2.9 0 8.2-.9 3.5-1.3 7.5-1 9.8 1.6 10.1 11.5 22.1 22.8 27.6 16.2 8 31.9 5.7 36.8-5.3 2.2-4.7 1.9-5.3 4.5 11.1 2.8 17.9 6.7 31.4 16.4 57.5 7.7 20.9 29.9 56.7 45.3 73.3 16.4 17.7 34.4 34.5 36.9 34.5.6 0 .9.7.6 1.5-.4.8-.2 1.7.3 2 .6.4 1 1.9 1 3.4 0 2.3-2.3 4.8-14.1 15.2-23.8 20.8-22.8 20.1-27.1 19.7-2.1-.2-3.7 0-3.6.4.2.5 8.8 6.6 19.2 13.8l18.8 12.9 7.1-5.2c6.8-5 7.9-7.4 1.8-4.3-3.9 2.1-9.4 2-13.4 0-4.6-2.4-11.8-7.7-11.5-8.4.2-.4 4-3.9 8.5-7.9l8.3-7.3 3.5 2.2c4.9 3 6.1 5.5 4 8.6-.8 1.3-1.1 2.4-.6 2.4 1.3 0 15.3-12.2 14.7-12.8-.3-.2-1.8 0-3.5.6-2.4.8-3.7.7-7-1-7-3.4-6.9-3.8 1.4-11.3l7.6-6.8 4.7 3.3c9.4 6.6 10.6 8.5 8.1 13.1-2.3 4.5-.1 3.7 4.4-1.5l4.7-5.5-3.7-2.6c-4.9-3.3-3.6-3.2 2.4.2 8.6 4.8 10.3 5.6 26.1 12.3 2.6 1.2 5.5 2.5 6.4 3 1 .6 2.6 1 3.6 1s2.2.3 2.5.6c1.1 1.1 11 4.3 13.3 4.4 1.1 0 2.4.3 2.8.7 1.3 1.3 8.2 3.3 13.9 3.9 3.1.4 6 1.1 6.3 1.5.3.5 2.7.9 5.3.9 2.6 0 5.1.4 5.7.9 1.4 1.4 12.7 2.2 38.9 2.9 19.5.6 22.7.8 17 1.5-11.1 1.2-14.5 1.9-14.5 2.8 0 .4.9 1 1.9 1.4 3.6 1.1 3.3 5.4-1.7 26.1-5 20.8-6.8 25.4-10.2 25.4-1.1 0-2 .4-2 1 0 1.1 27.2 1.4 28.3.3.4-.3-.3-1.1-1.6-1.7-1.2-.6-2.4-2.3-2.6-3.6-.1-1.4 2.3-13.8 5.5-27.7l5.7-25.1 3.6-.6c2-.3 6.8-1 10.6-1.6 7.8-1 15.1-2.5 17.8-3.5 2.8-1.1 2 .8-1.6 3.7-8.4 6.6-9 18-1.5 24.9 2.1 1.9 2.9 3.2 2.2 3.7-9.5 6.3-12.7 13.9-8.9 21.2 2.4 4.7 6.6 6.3 15.5 5.8 13.9-.6 24.8-8.4 25.8-18.6.5-6-1.3-9.9-6.8-14.3l-4.1-3.3 4.5-4.5c2.4-2.5 4.9-5.6 5.5-6.8 3.1-6-.4-13.5-7.1-15.4-3-.9-3.7-1.4-2.3-1.6 4.1-.7 13-3.6 13.9-4.4.6-.5 1.8-.9 2.8-.9 1 0 2.6-.4 3.6-1 .9-.5 3.5-1.7 5.7-2.6 6.1-2.5 14.8-6.4 16.8-7.5 1.1-.6 2.1-.9 2.3-.6.2.2-3.4 2.5-8.1 5.1-4.7 2.6-8.5 5.2-8.5 5.6 0 .5 1 1 2.3 1.2 3.6.5 5.2 5.5 8.8 27.3l3.3 20.5-2.3 3.1c-1.3 1.7-2.1 3.2-1.9 3.4.6.6 25.8-10.7 25.8-11.6 0-.5-1.3-.9-2.9-.9-2.2 0-3.1-.6-3.9-2.8-.8-2.1-9.2-49.2-9.2-51.7 0-.3-.6-.3-1.2.1-.7.4-1 .4-.6-.1.9-1 3.9-2.7 9.5-5.4 2.3-1.2 4.4-2.5 4.8-3 .3-.6 2.6-2 5.1-3.3 2.5-1.2 6.3-3.7 8.4-5.5 5-4.3 5.6-4.2 2.3.8-1.9 2.9-2.8 5.7-3.1 10-.6 7.8 2.5 12.8 9.2 15.4 2.6 1 4.6 1.8 4.6 1.9 0 0-1.1 2.3-2.5 5-5.6 11.1-.9 21.6 9.7 21.6 8 0 19.8-8.4 24.2-17.3 3.1-6.2 3.3-9.7.6-15.3-2.4-4.9-5-6.9-11.4-8.5-2.5-.6-4.6-1.3-4.6-1.4 0-.2 1.1-2.7 2.5-5.7 2.9-6.2 3.2-11.4.8-14.8-2.7-4-4.5-4.9-9.3-5h-4.5l6-5.2c5.7-5 16-15.2 27.1-26.9 8.2-8.7 27.3-36 33.2-47.4 13.2-25.7 19.9-43.4 25.7-68 15.9-67.7 3.9-141.8-32.3-200-12.1-19.4-34.6-47.8-39.4-49.7-1-.4-1.8-1.2-1.8-1.7 0-1.1-25.4-23.3-27.8-24.2-.9-.4-2.6-1.6-3.6-2.8-1.1-1.1-2.3-2.1-2.7-2.1-.4 0-3.6-2-7.1-4.4-7.9-5.5-13.1-8.4-23.8-13.6-19.2-9.4-27.6-13-30.1-13-1 0-2-.4-2.3-.9-.5-.7-6.2-2.6-16.1-5.3-2.2-.5-4.9-1.4-6-1.8-4.6-1.7-15.6-4-19.4-4-2.2 0-4.3-.5-4.6-1-.3-.6-2.3-1-4.3-1s-5.1-.4-6.8-.9c-4.4-1.2-36.9-2-50.4-1.1zm48.5 20.8c5 .5 11.3 1.7 14 2.6 2.8.9 6.4 1.6 8 1.6 1.7 0 8 1.5 14 3.4 6.1 1.8 12.5 3.7 14.2 4.1 1.8.3 3.5 1.1 3.8 1.6.4.5 1.5.9 2.6.9 1 0 2.7.4 3.7 1 .9.5 3.5 1.6 5.7 2.6 2.2.9 5.8 2.5 8 3.5s5.1 2.3 6.5 2.9c1.4.5 4.3 2.1 6.5 3.4 3.9 2.5 6.6 4 11.5 6.7 1.4.8 3.9 2.4 5.7 3.6 1.7 1.3 3.4 2.3 3.8 2.3.7 0 14 10 17 12.9 1.1 1 4.7 4 8 6.7 7.3 5.8 20.6 19.3 24.8 25.1 1.7 2.4 3.4 4.3 3.8 4.3.3 0 2.6 2.9 4.9 6.5 2.4 3.6 4.8 6.9 5.5 7.3 2.4 1.4 25.5 42.8 25.5 45.6 0 .3-26.2.6-58.2.7-32.1.1-59.3.4-60.5.7-1.2.4-3.6 2.8-5.2 5.4l-3 4.6 3.8 11.4c2 6.2 4.8 14.6 6 18.5l2.3 7.3H522c60.9 0 64.9.1 65.4 1.7 1.1 3.5 3.6 23.8 3.6 29v5.3H465.9l4.2 7.6c4 7.2 4.1 7.8 3.7 14.4-.3 4-1.2 8-2.2 9.5-1.9 3-8.5 6.5-12.1 6.5-1.4 0-2.5.4-2.5 1 0 .5-.9 1-2 1-1.6 0-2 .7-2 3v3h137l-.5 2.2c-.2 1.3-1.2 6.3-2.1 11.3-1.9 10.9-4.3 19.8-5.6 20.6-.5.3-28.7.4-62.7.1l-61.8-.5-.6 3.7c-.8 5.1-8.7 21.1-13.3 27.1-7.2 9.1-9.8 11.2-15.3 11.9-5.2.7-9.7.1-11.9-1.7-2.2-1.7-2.6.2-.9 3.8l1.7 3.5h73c40.1 0 73 .2 73 .4 0 .6-2.8 5.5-10.7 18.8l-6.4 10.8h-50.5c-27.7 0-50.4.3-50.4.6s2 3.1 4.5 6.2 5.7 7 7 8.7c3.9 4.9 7 9.6 12.1 18 2.6 4.4 5.6 9.4 6.6 11.2l1.9 3.2 11 .3 11 .3-5.2 4c-2.9 2.2-6 4.4-6.9 5-.9.5-3.2 2-5.1 3.2-1.9 1.3-3.7 2.3-4.1 2.3-.3 0-3.3-5.5-6.6-12.2-3.3-6.8-7.6-14.8-9.6-17.8s-4.2-6.4-4.9-7.4c-.7-1.1-1.9-2.6-2.7-3.5-.8-.9-2.6-3.2-3.9-5.1-1.4-1.9-3.2-4.2-4-5.1-5.1-5.2-7.6-9.3-9-15.2-1.6-6.2-7.3-15.6-9.6-15.7-.5 0-2.1-.9-3.5-2-4.2-3.3-16.3-2.4-19.1 1.3-.3.5-2.3-.1-4.3-1.2-2.3-1.3-5.6-2.1-8.9-2.2-2.9-.1-4.3-.3-3.2-.6 1.1-.3 2.4-.9 2.9-1.4 1.3-1.2 15.3-1.1 16.1.1.8 1.3 4.5 1.3 4.5.1 0-.6-.9-2.6-2.1-4.5-1.2-2.1-2.3-6.2-2.6-9.6l-.6-6h4.5c2.4 0 5.3.7 6.4 1.5 2.8 2.1 10.7 1.9 14.5-.4 3.5-2.2 10.8-12.7 14.9-21.6 3.8-8.2 4.2-9.9 3.5-13.9-.8-4-6.2-10.6-8.7-10.6-1 0-2.2-.9-2.8-2-.7-1.3-.7-2-.1-2 1.6 0 4.1-5.6 4.1-9.3 0-1.8.6-3.9 1.3-4.5.6-.7 1.7-4.3 2.2-8 .9-6.1 1.3-6.7 3.5-7 1.4-.2 2.9-.8 3.5-1.3.5-.5 1.9-.9 3.2-.9 1.3 0 3.1-.4 4.1-.9.9-.5 2.5-1.2 3.5-1.5 2.6-.8 3.9-5.3 3.5-11.6-.4-5-1.4-7.3-10-21.4l-9.6-15.8 2-3.4c2.5-4.2 2.1-11.2-1.1-20.8-1.2-3.4-3.5-10.2-5.2-15.1-5-15-5.7-17.5-4.8-17.5 1.5 0 4.7-7.3 5.4-12.3.5-3.3 1.1-4.5 1.9-3.8.6.5 2.5 1.2 4.1 1.5 2.4.5 3.6.1 5.8-2 3.8-3.5 3.2-6.3-3.1-15.2-6.4-8.9-7.2-10.5-7.2-14.1 0-1.6-.5-4-1.1-5.3-1.2-2.8-6.2-5.8-9.5-5.8-1.3 0-2.4-.5-2.4-1 0-.6-.6-1-1.4-1-.8 0-1.6-.7-2-1.5-.3-.8-1.2-1.5-1.9-1.5s-2-1.1-2.7-2.5c-2.5-4.6-11.7-8.4-13.5-5.5-.3.5-1.3 1-2.1 1-.9 0-3.1 1.2-4.9 2.6-3.2 2.4-3.9 2.5-11.2 1.9-15.7-1.2-45.6-1.6-46.7-.5-.5.5-3.5 1-6.6 1-3.1 0-6 .4-6.6.9-.5.5-7.9 1.1-16.4 1.3-14.2.3-15.8.5-18.7 2.5-1.7 1.3-3.5 2.3-4 2.3-2 .1-6.2 5-10.2 11.8-3.6 6.2-5.3 8-11.3 11.8-3.9 2.5-8 4.9-9.2 5.4-7.7 3-20.1 16-25.7 27l-3.3 6.5-.4 17.5c-.7 29.4 1.8 62.1 4.9 64 2.3 1.5 7.8 14.3 8.4 19.7 1.7 15.3 10 32 21 42.3 9.8 9.1 9.7 9.1 9.1 14.9-1 10.2-6.7 19.1-18.5 29.1-17.4 14.6-28.7 30.5-36.6 51.5-1.9 5.2-3.5 10.1-3.5 10.9 0 .8-.4 1.7-.8 2-.5.3-2.6 8.9-4.8 19.1-2.4 11.3-4.4 18.5-5.1 18.5-.6 0-2.5-1.1-4.1-2.5-1.7-1.4-3.5-2.5-4.1-2.5-.7 0-1.4-.7-1.7-1.5-.4-.8-1.1-1.5-1.8-1.5-.6 0-3.3-2-6-4.5s-5.3-4.5-5.7-4.5c-.7 0-23.6-22.6-29.6-29.3-1.7-1.9-4.8-5.9-6.9-8.8-2.1-3-4.3-5.9-5-6.5-4.9-4-25.3-42.4-31.7-59.4-15.9-42.3-19.6-92.2-10.2-137 7.2-34.2 22.4-67.9 43.5-96.9 8.3-11.3 29-34.1 31-34.1.5 0 1-.4 1-.9s3-3.3 6.7-6.3c16.6-13.3 21.2-16.8 21.9-16.8.4 0 2.1-1 3.8-2.3 1.7-1.2 5.1-3.3 7.6-4.6 2.5-1.3 5.2-2.9 6-3.6 1.9-1.5 20-10.5 21.2-10.5.4 0 3.1-1.1 6-2.5 2.8-1.4 5.9-2.5 6.8-2.5.9 0 2-.4 2.6-.9.5-.5 3.6-1.6 6.9-2.6 3.3-1 6.4-2.2 6.9-2.7.6-.4 2.4-.8 4.1-.8 1.7 0 3.5-.4 4-.9.6-.5 4.2-1.5 8-2.1 3.9-.6 9.5-1.5 12.5-2s8.6-1.4 12.3-1.9c3.8-.5 7.1-1.2 7.5-1.6.9-.8 41.6.1 52.7 1.3zm7.9 121.1c.3.4 2.3 1.1 4.4 1.5 2.2.3 6.4 1.9 9.3 3.6 3 1.6 6.3 3.4 7.4 3.9 1.2.5 2.7 1.6 3.4 2.5.7.9 1.7 1.6 2.2 1.6 2.1 0 14.6 14.4 20.1 23.1 5.2 8.2 11.2 29.7 10.6 37.8l-.3 4.2-4-3c-2.2-1.7-5.2-3.1-6.7-3.1s-3-.5-3.3-1c-.8-1.3-6-1.3-8.3-.1-.9.5-3.7 1.8-6.2 2.9-2.5 1.1-6.9 4.3-9.9 7.1-2.9 2.8-5.7 5.1-6.2 5.1s-1.6 1.4-2.5 3.2c-2.1 4.1-1.5 12.3 1.2 14.3 3.1 2.4 6.6 1.5 7.8-2.2 1.8-5.2 2.8-5.7 7-3.4 2 1.2 4.3 2.1 5.1 2.1 1.2 0 1.5 1.4 1.5 5.9 0 7.7.6 9.1 4 9.1 3.2 0 3.6-.7 4.5-8.4.7-5.3 1-5.7 4.4-7.2 5.4-2.4 8.5-3.8 9.3-4.1 1.3-.6 22.9 34.8 22.6 37-.5 3.3-6.1 5.6-13.8 5.6-7.3 0-9.5-1.1-10.6-5.5-1.6-6.6-3.2-5.9-18.8 8-3.8 3.3-9.1 7.7-11.7 9.6-3.2 2.3-4.9 4.2-4.9 5.7 0 3.5 1.9 3.7 5.8.6 2-1.6 5.2-3.8 7-4.8 1.7-1.1 3.2-2.2 3.2-2.5 0-1.1 9.7-8 11.3-8 .8 0 2.9 1.3 4.7 3 1.8 1.6 3.8 3 4.6 3 1 0 1.4 1.3 1.4 4.2v4.1l-10.5-.6-10.4-.6-5.1 5.7c-8.1 9-5.5 12.7 4 5.7 4.3-3.2 5.4-3.5 11.3-3.5 5.7 0 6.8.3 8.1 2.2 1.4 1.9 1.4 2.4.2 3.7-1.2 1.2-2.4 1.2-7.2.2-4.9-.9-6.1-.9-8.1.5-3 1.9-2.4 4.8 2 8.6 2.6 2.3 4.1 2.8 8.4 2.8 4.8 0 5.5.3 6.5 2.6 1.9 4.1-.8 5.4-11.2 5.4-4.7 0-9.1.5-9.7 1.1-.7.7-2.4.2-5.8-1.5-7.1-3.8-8.8-3.5-15.6 3.4-3.2 3.3-6.3 6-6.7 6-.5 0-2.1-1.1-3.6-2.5-2.3-2.1-2.6-3-2-6.1.9-4.9-1.1-8.4-4.7-8.4-2.1 0-3.2.7-4.4 3-.8 1.6-1.5 3.5-1.5 4.3 0 .8-.9 2.2-1.9 3.1-2.6 2.4-3.4.7-2.6-5.3.6-4.3.4-5.1-1.6-7-1.3-1.1-3.5-2.1-5-2.1s-3.1-.5-3.4-1c-.3-.6-4.2-1-8.5-1s-8.5-.3-9.4-.6c-.9-.3-3.1-2.8-5-5.4-3.2-4.4-4.1-6.9-6-15.1-.8-3.5-3.3-4.4-6.4-2.3-3.2 2.1-10 2.4-13.3.6-4.9-2.7-13.4-17.9-14.5-25.8-.6-5-.6-5.1 3.3-8.2 4.9-3.8 6.3-2.9 6.3 4 0 2.8.7 5.9 1.6 7.3 1.7 2.5 4.8 3.3 5.9 1.5.3-.6 1.8-1 3.1-1 2.8 0 8.4 4.9 8.4 7.4 0 2 3.6 2.1 4.3.2 1.2-2.9-2.4-12.6-4.7-12.6-1.5 0-3.5-3.3-3.6-5.8 0-2.8 1.6-6 4.1-8.5 1.3-1.2 1.9-3.1 1.9-6-.1-3.4-.9-5.2-4.3-9.6-2.3-2.9-5.4-5.9-6.9-6.7-7.8-4-8.3-4.3-8.3-6.6 0-3 3.1-2.8 10 .7 10.5 5.3 17.4 14.6 20.9 28.3 2.1 8.4 2 10.8-.9 25.2-1.4 6.8-2.5 12.4-2.5 12.6 0 .2 1.1 1.1 2.5 2 2.3 1.5 2.7 1.5 6.5-.5 6.3-3.3 11.8-2.8 16.3 1.3 2.1 1.9 3.7 4.3 3.7 5.6 0 3.5 1.9 6 4.5 6 1.9 0 2.6-.7 3.4-3.8.6-2 1.1-4.7 1.1-5.9 0-1.2.4-3.3 1-4.7.8-2.3 1.5-2.6 5.5-2.6 2.5 0 5.5.6 6.8 1.2 1.2.7 2.3 1.3 2.5 1.4.1.1-1.4 4.3-3.3 9.4-3.3 8.7-3.4 9.4-2 11.6 1.9 2.9 2 2.9 4.7.4 1.9-1.7 9.2-19 10.5-24.6.9-4.1-1.3-6.4-6.2-6.4-2.5 0-5.3-.4-6.3-.9-6.8-3.3-9.6-5-16-9.9-7.9-6-10.2-9.2-10.2-14.2 0-5.1 2.9-9.1 9.3-12.5 1.9-1.1 2.7-2.3 2.7-4.3 0-3.5-1.7-5.2-5.1-5.2-1.5 0-3.1-.5-3.4-1-.3-.6-1.3-1-2.1-1-2.6 0-9.2-7-11.3-12-3.2-7.4-5.4-23.1-4.5-32 1.2-12 1-25.2-.5-29.3-.7-2.1-2.4-5-3.7-6.4-1.3-1.4-2.4-2.9-2.4-3.4 0-1.3 5.2-4.9 7.1-4.9 1 0 2.1-.5 2.4-1 .8-1.2 35.2-1.4 35.9-.1zM297.3 388c3.9 4.2 11.5 10 13.1 10 1 0 2.3 1.7 3.2 4.1 1.3 3.2 2.6 4.4 6.3 6 2.5 1.2 5.4 2.5 6.3 3 1 .5 2.2.9 2.8.9.5 0 1.8.8 2.8 1.7.9 1 2.9 2.7 4.3 3.8 1.5 1.2 4.4 5.5 6.6 9.5 3.2 6.2 5.1 8.4 10.8 12.8 4.1 3.1 8.5 5.5 10.5 5.8 2.4.4 5.4 2.3 9.4 6 4.8 4.5 5.6 5.7 5 7.6-.8 2.7-6.4 10.8-7.4 10.8-.4 0-4.7-2.9-9.5-6.5s-8.9-6.5-9.2-6.5c-.2 0-2.4-1.6-4.7-3.5-2.4-1.9-4.6-3.5-5-3.5-.4 0-2.2-1.1-4-2.5-1.8-1.4-3.6-2.5-4-2.5-.4 0-2-.9-3.4-2-4-3.1-13.1-9-13.8-9-.3 0-2-1-3.6-2.2-1.7-1.1-5.5-3.4-8.4-4.9-3-1.5-6.7-3.8-8.4-5.2-1.6-1.4-3.9-2.9-5-3.2-1.2-.4-1.9-1.2-1.7-1.8.4-1.4 7.7-2.2 8.6-1 1.2 1.6 5.1 3.3 7.6 3.3 3.6 0 4.1-2.3 1.6-7.5-1.2-2.5-2.1-4.9-2.1-5.4s-.6-1.6-1.4-2.3c-.7-.8-2.1-2.9-3.1-4.7-.9-1.9-3.7-5.8-6.1-8.8-2.4-2.9-4.4-5.7-4.4-6.2 0-1.8 1.5-2.1 2.7-.4.7 1 2.3 2.9 3.6 4.3zm90.2 92c.3.5 1.4 1 2.4 1s2.6.9 3.6 2 2.4 2 3 2c1.2 0 8.5 9.7 8.5 11.3 0 1.6-1.7.5-7.5-4.8-3.3-3-6.3-5.5-6.8-5.5-.9 0-6.7-5.5-6.7-6.4 0-1 2.8-.7 3.5.4zm41.6 19.3c1.5.5 7 7.2 12.4 15.1 5.4 7.9 10.4 16.5 17.7 30.5 6.3 11.8 7.8 15.5 6.7 16.1-1.9 1.2-2.1 1-9.8-9.9-3.9-5.4-7.8-10.1-8.9-10.3-1-.3-5.9-5.2-11-10.9-5-5.7-11.1-12.7-13.5-15.4-6.4-7.3-7.1-8.9-5.2-12.5.9-1.7 2.3-3 3.5-3 1 0 2.2-.4 2.5-1 .4-.6 1.2-.6 2.3-.1.9.5 2.4 1.2 3.3 1.4zm85.4 62.3c3.5 1.4 5.5 9.1 3.9 15.1-.5 1.7-1.4 2.3-3.5 2.3-6.8 0-10.9-3.4-10.9-9.1 0-6.3 5.1-10.3 10.5-8.3zm-307.4 13.1c1.3 1.6 1.2 1.7-.3.4-1.7-1.3-2.2-2.1-1.4-2.1.2 0 1 .8 1.7 1.7zm317.7 21.7c5.4 2.8 6.8 10.1 2.7 14.1-3.4 3.5-10.2 3.5-13.4.1-2.7-2.9-3.8-9.8-2.2-14 1.1-2.7 1.4-2.8 5.6-2.2 2.5.3 5.8 1.2 7.3 2zM417 610c3.4 3.4 2.5 11.3-1.7 16.2-1.4 1.6-1.8 1.6-4.5.2-7.5-3.9-9.1-10.2-3.9-15.5 3.5-3.4 7.2-3.8 10.1-.9zm-9.2 31.9c5.2 2.6 7.3 5.3 7.9 9.9.5 3.4.1 4.5-2 6.6-2.8 2.8-8.2 3.5-11.9 1.5-2.7-1.4-5-7.3-4.2-10.7.6-2.5 4.9-9.2 6-9.2.3 0 2.1.9 4.2 1.9zM546.2 86.4c.6 1.4.8 3.1.5 3.9-.6 1.7-34.8 25.8-40.2 28.4-2.8 1.3-3.9 1.4-6 .5-1.4-.6-2.5-.8-2.5-.4 0 1.1 12.7 12.2 14.1 12.2.9 0 .8-.4-.1-1.5-2.6-3.2-.2-5.9 14.2-15.9 7.8-5.4 14.8-10 15.4-10.3.7-.2-1.9 9.3-5.8 21.3l-7 21.7 2.9 2.9 2.9 2.9 21.8-15.1c12-8.3 22.9-15.5 24.2-16 1.5-.6 3.4-.6 5 .1 1.5.5 2.8.8 3 .6.2-.2-2.2-2.5-5.4-5.3-9.5-8.2-8.9-7.9-8.8-3.8.1 3.6-.2 3.9-11.8 12.1-6.5 4.6-12.1 8.1-12.4 7.9-.3-.3 2.1-8.4 5.2-18.1l5.7-17.5-3.8-3.3c-11.9-10.6-13-11.3-11.1-7.3z"/><path d="M121.6 133c-7 2.1-13.6 13-13.6 22.4 0 12.7 9.4 23.5 19.5 22.4 5.7-.7 9.5-3.5 13.1-10 2.5-4.6 2.9-6.3 2.9-12.8-.1-10.9-4.2-17.9-12.7-21.5-4.1-1.7-5-1.7-9.2-.5zm4.5 12.1c5.7 6.2 10.9 15.6 10.9 19.6 0 1.7-.9 3.8-2 4.8-1.8 1.6-2.1 1.6-4.4.2-5.8-3.8-15.6-19.2-15.6-24.6 0-1.5.5-3.2 1.2-3.9 2.3-2.3 5.2-1.2 9.9 3.9zM596.6 135.4c1.1 2.9-2.1 5.9-22.6 20.6-11.6 8.3-21 15.5-21 15.8 0 .4 1 1.8 2.3 3.2l2.2 2.5 32.5-.5c17.9-.3 33.8-.2 35.4.2 1.6.4 3.2.6 3.4.3.5-.5-8-12.4-9-12.5-.4 0-.8 1-1 2.2-.3 2.2-.9 2.3-11.3 3.1-6 .4-14.6.6-18.9.5l-8-.3 12.3-8.9c11.1-8 12.6-8.8 15.8-8.3l3.4.6-3.7-5.2c-7.6-10.6-10.8-14.7-11.6-14.7-.4 0-.5.6-.2 1.4zM59.7 178.9c-3.7 8.3-4.1 10.5-1.4 8.2 2.2-1.8 4.8 1.2 10.7 12.2 4.8 9.1 5 9.7 2.8 9.3-1.2-.3-5.1-1-8.6-1.6-8-1.4-11.2-2.8-11.2-5.1 0-4.5-2.1-2-6.9 8.3-2.8 6.1-5 11.3-4.7 11.5.2.2 1.2-.1 2.3-.7 1.4-.8 5.5-.5 17.6 1.4l15.8 2.5 6.2 4.9c8.8 7 10.1 8.7 10 12.7-.1 1.9.1 3.5.3 3.5.5 0 11-22.1 12-25.2l.6-2.1-2.7 2.1c-3.3 2.6-4 2.3-14.1-5.9-6.7-5.4-7.6-6.8-15.7-21.7-4.8-8.8-8.7-17.3-8.9-19.3-.3-3.2-.5-3-4.1 5zM633 193c0 2.2-.6 3.3-2.2 4-1.3.5-12.4 3.2-24.8 6.1l-22.5 5.1-3.7-2c-2.1-1.1-3.8-1.9-3.8-1.7 0 .7 13.2 25.5 13.6 25.5.2 0 .2-1-.1-2.3-1.1-4.1 2.1-5.4 25.3-10.7 24.4-5.5 25.9-5.7 28.8-3.5 1 .8 2.2 1.5 2.6 1.5.5 0-2-5.6-5.4-12.5-3.5-6.9-6.6-12.5-7-12.5-.5 0-.8 1.4-.8 3zM651 231.7c0 4.1-2.3 4.6-26.7 6.4-23.9 1.8-28.5 1.5-29.7-1.7-.3-.8-.9-1.4-1.4-1.4-.5 0 2.1 9.3 5.8 20.7l6.7 20.8 4.1.3c2.3.2 6.3.2 8.9 0l4.8-.3-4.3-1.3c-6.5-2-10.7-6.3-13.1-13.4-1.2-3.4-2-6.2-1.8-6.3.3-.3 45.6-3.5 48.5-3.5 1.3 0 3.4 1.2 4.9 2.6 1.4 1.4 2.7 2.4 2.9 2.1.5-.5-7.6-25-8.7-26.2-.5-.5-.9-.1-.9 1.2zM34.6 233.2c-4 14.2-10.6 42.4-10.2 43.4.6 1.6 14.6 8.8 14.6 7.6 0-.5-.9-1.7-2.1-2.8-1.2-1-2.7-3.1-3.5-4.6-1.7-3.3-1.9-11.8-.2-11.8 1.8 0 38.5 19.9 41.8 22.7 1.8 1.5 3 3.4 3 4.9 0 5.6 1.8 1.5 4.9-11.2 3.2-12.9 3.6-17 1.1-12.5-.6 1.2-2 2.1-3.2 2.1-1.9 0-40.7-19.8-43.1-22-.5-.4-.4-2.6.2-4.8 1.3-4.6 3.4-5.7 8.7-4.7 6.7 1.2 3.9-1-10.7-8.3-.4-.1-.9.7-1.3 2zM608 282.9c0 3 5.1 40.5 5.6 41 .5.6 16.7 4.2 17.1 3.7.2-.2-2-1.7-5-3.4-3.6-2-5.9-4.2-7-6.4-1.9-4-3.8-14.8-2.6-14.8 2.6 0 47.7 5.1 49.2 5.6 1 .3 2.7 2 3.8 3.7 1 1.8 1.9 2.7 1.9 2.2 0-3.3-3.4-26.3-4.1-27.5-.7-1.3-.8-1.3-.9.1 0 .9-.8 2.3-1.8 3.3-1.8 1.5-3.4 1.5-25.7-.9-13.1-1.4-24.6-3-25.6-3.5-1-.6-2.5-2-3.3-3.2l-1.6-2.2v2.3zM21 289c-.6 2.9-2.7 27.6-2.4 27.9.3.3 1.1-.5 2-1.7.8-1.2 2.5-2.2 3.7-2.2 2.6 0 44.6 14.7 46.6 16.3.8.7 2 2.5 2.7 4.2l1.2 3 .6-3.5c1-6.4 2.5-24.4 2-24.9-.2-.3-1.1.5-2 1.7-.8 1.2-2.3 2.2-3.3 2.2-1.7 0-36.4-12-44.6-15.4-2.3-1-4.1-2.7-5-4.8-.8-1.8-1.5-3.1-1.5-2.8zM614.6 331.1c-.6 3.1-2.8 44-2.4 44.4.7.7 14 6.5 14.9 6.5 1.8 0 .8-1.5-2.1-3.2-5.3-3-7-7.2-7-17.1 0-10.3-.8-9.9 13-5.4l9.5 3.2-.3 5c-.2 5.3-2.3 8-5.4 7.1-1-.2-1.8 0-1.8.5 0 .7 15.2 5.9 17.4 5.9.4 0-.4-1.4-1.8-3.1-3-3.5-3.7-11.5-1.2-12.5.8-.3 5.3.7 10 2.1l8.6 2.6v6.7c0 8.2-1.5 11.4-5.8 12.7-1.7.5-3.2 1.2-3.2 1.5 0 .6 12.2 3.2 12.6 2.7.2-.3 2.4-37.5 2.4-41.4v-3.2l-2.4 2.4c-2.9 2.9-2.9 2.9-30.6-6.2-19.7-6.5-20.6-6.9-22.2-10.2-1.6-3.3-1.7-3.3-2.2-1zM214.3 609c-6.7 4-7.2 11-1.2 17.5 5.7 6.4 5.5 11.5-.6 11.5-5 0-9.6-4.4-10.4-9.9l-.6-4.3-4.3 5.3-4.4 5.4 2.9.6c1.6.3 5.2 2.2 8.1 4.2 9.2 6.3 18.3 6.4 23.9.3 4.8-5.2 4.6-9.7-.7-16.7-4.2-5.6-4.8-7.7-2.8-9.7 3.5-3.5 12.1 1.9 12.1 7.6 0 1.8.4 3.2.7 3.2.4 0 2.4-2 4.4-4.5l3.7-4.4-4-1.1c-2.1-.5-4.4-1.7-5-2.4-1.7-2.1-9.8-4.6-14.5-4.6-2.3 0-5.5.9-7.3 2zM270.2 617.1c-2.9 1.5-7.8 3.1-10.8 3.5-4.9.6-8.7 2.4-5 2.4 2.5 0 2 1.5-4.3 12-8.5 14-9.3 15.9-8.7 18.6 1.2 4.8 11.3 5 16.8.4l2.3-2-2.7.6c-1.6.3-2.8.2-2.8-.3s3.1-6 6.9-12.3c6.5-11 7-11.5 10.1-11.5 4.1 0 4.9-1.8 1.5-3.1l-2.5-.9 3-4.7c4.3-6.9 4.3-7-3.8-2.7zM269.7 652.8c-2.1 2.3-2.2 7.6-.1 9.6 1.6 1.7 6.1 2.1 8 .8 2.1-1.3 3.4-5.2 2.8-7.7-1.1-4.5-7.6-6.1-10.7-2.7z"/></svg>